<?xml version="1.0" standalone="no"?>
<!DOCTYPE svg PUBLIC "-//W3C//DTD SVG 20010904//EN"
 "http://www.w3.org/TR/2001/REC-SVG-20010904/DTD/svg10.dtd">
<svg version="1.0" xmlns="http://www.w3.org/2000/svg"
 width="500.000000pt" height="500.000000pt" viewBox="0 0 500.000000 500.000000"
 preserveAspectRatio="xMidYMid meet">
<metadata>
Created by potrace 1.16, written by Peter Selinger 2001-2019
</metadata>
<g transform="translate(0.000000,500.000000) scale(0.100000,-0.100000)"
fill="#000000" stroke="none">
<path d="M833 3813 c-14 -5 -18 -59 -5 -65 6 -3 55 -59 127 -147 11 -13 42
-48 69 -78 l48 -53 359 0 c349 0 414 -5 478 -34 26 -12 184 -195 214 -249 15
-26 17 -50 15 -132 -4 -122 -29 -185 -110 -272 -29 -32 -44 -51 -33 -43 25 17
101 95 116 118 9 15 10 15 5 -1 -12 -37 -76 -124 -113 -153 -78 -61 -107 -72
-220 -86 -7 -1 -13 -3 -13 -5 0 -5 70 -95 99 -128 14 -16 53 -64 86 -105 32
-41 94 -118 138 -170 43 -52 84 -102 90 -110 49 -61 386 -475 419 -514 58 -68
83 -76 240 -75 73 1 144 4 158 8 42 12 37 44 -18 108 -27 32 -56 67 -65 78 -9
11 -42 52 -74 91 -66 80 -83 101 -173 212 -36 45 -68 81 -73 81 -8 1 19 -44
43 -70 8 -9 31 -35 50 -58 19 -23 47 -55 63 -72 15 -16 27 -32 27 -34 0 -6 37
-51 73 -88 15 -16 27 -33 27 -38 0 -5 5 -9 10 -9 6 0 10 -4 10 -10 0 -5 8 -18
18 -28 31 -33 62 -72 62 -78 0 -4 8 -13 18 -21 16 -13 15 -13 -4 -4 -19 9 -49
42 -104 112 -14 18 -32 40 -40 48 -9 9 -33 38 -55 66 -22 27 -46 57 -53 65
-104 124 -147 176 -188 230 -27 36 -62 79 -78 95 -15 17 -52 62 -82 102 -30
39 -58 73 -62 75 -14 5 -73 91 -67 96 6 6 45 -33 45 -45 0 -5 9 -14 19 -20 11
-7 34 -33 52 -59 18 -26 39 -55 48 -64 9 -9 32 -36 51 -59 19 -24 43 -53 54
-65 10 -11 24 -30 32 -40 7 -11 16 -17 19 -15 2 3 -6 19 -19 35 -197 239 -265
324 -284 351 l-22 32 26 28 c150 161 214 318 214 527 0 226 -94 426 -266 567
-73 60 -197 129 -231 129 -11 0 -24 5 -30 11 -6 6 -21 9 -34 6 -22 -4 -22 -4
3 -6 15 0 30 -5 33 -11 3 -5 16 -10 28 -10 12 0 31 -7 41 -15 11 -8 28 -15 38
-15 10 0 18 -4 18 -9 0 -5 10 -11 23 -15 12 -3 37 -18 56 -33 49 -40 161 -150
161 -158 0 -3 6 -13 13 -20 31 -35 39 -47 34 -51 -2 -2 -23 18 -47 46 -62 73
-161 147 -255 191 -157 74 -145 72 -695 79 -272 4 -505 10 -517 14 -17 6 -23
5 -23 -5 0 -12 -2 -12 -9 0 -25 40 -15 41 413 44 l411 2 -410 2 c-225 1 -416
-1 -422 -4z"/>
<path d="M3865 3806 c13 -9 16 -19 10 -32 -4 -11 -9 -14 -12 -8 -3 8 -15 9
-41 3 -20 -5 -90 -9 -155 -9 -141 0 -150 -4 -222 -95 -27 -35 -53 -64 -57 -64
-5 -1 -8 -8 -8 -16 0 -7 -6 -18 -12 -22 -18 -11 -133 -148 -193 -229 -27 -37
-71 -91 -96 -118 -25 -28 -61 -72 -79 -98 -18 -27 -38 -48 -43 -48 -6 0 -8 -2
-5 -5 3 -3 -9 -20 -26 -38 -17 -18 -56 -66 -86 -105 -30 -40 -71 -89 -90 -110
-19 -21 -46 -54 -59 -73 -26 -37 -81 -86 -81 -71 0 5 18 28 40 52 22 24 40 46
40 50 0 3 18 25 40 48 22 22 40 46 40 52 0 5 6 10 13 10 6 0 18 13 24 28 7 15
31 47 53 71 22 23 40 45 40 48 0 2 6 10 13 17 7 8 29 33 48 56 18 24 42 51 52
62 9 10 17 21 17 26 0 4 23 30 50 59 28 29 50 57 50 62 0 5 4 11 8 13 5 2 26
25 46 52 62 82 136 172 181 222 17 18 39 45 50 60 26 36 81 103 106 132 12 12
17 22 11 22 -13 0 -73 -69 -235 -270 -7 -8 -48 -60 -92 -115 -43 -55 -93 -116
-110 -135 -16 -20 -44 -54 -62 -75 -105 -133 -390 -485 -414 -513 -37 -42 -36
-68 4 -117 17 -21 66 -80 107 -130 42 -49 120 -146 175 -215 55 -69 102 -127
105 -130 3 -3 46 -54 95 -115 49 -60 103 -126 119 -145 17 -20 47 -56 66 -80
19 -24 49 -60 65 -80 17 -19 50 -60 73 -92 61 -81 82 -88 250 -88 209 0 227
14 146 111 -25 30 -51 61 -57 69 -48 61 -260 323 -268 330 -3 3 -32 39 -64 80
-33 41 -62 77 -66 80 -3 3 -36 43 -74 90 -38 47 -101 123 -140 170 -39 47 -92
112 -118 146 l-46 61 22 31 c21 29 95 120 355 437 59 71 114 138 122 148 8 10
23 28 34 40 10 12 66 83 124 157 59 74 109 137 112 140 3 3 21 25 40 50 19 25
49 61 67 80 18 19 33 42 33 51 0 19 -20 39 -39 39 -11 0 -10 -3 4 -14z m-793
-1287 c15 -19 37 -46 50 -60 13 -14 39 -45 58 -69 34 -42 63 -78 125 -155 17
-20 39 -47 50 -60 42 -47 65 -75 65 -81 0 -3 6 -11 13 -19 6 -7 23 -27 37 -45
14 -18 37 -45 53 -60 15 -16 27 -31 27 -35 0 -4 12 -20 28 -35 41 -45 52 -58
52 -69 0 -5 3 -11 8 -13 8 -3 60 -63 107 -123 17 -21 38 -45 48 -54 9 -8 17
-21 17 -28 0 -7 4 -13 10 -13 5 0 15 -10 21 -22 11 -22 11 -22 -17 2 -36 31
-54 51 -79 87 -11 15 -39 49 -62 74 -24 25 -43 51 -43 57 0 6 -3 12 -7 14 -5
2 -28 28 -53 58 -25 30 -73 88 -107 127 -35 40 -63 76 -63 81 0 4 -23 32 -50
62 -28 30 -69 80 -92 110 -62 81 -130 162 -155 187 -13 12 -23 27 -23 33 0 6
-7 13 -15 16 -8 4 -15 10 -15 15 0 6 -8 18 -17 29 -10 10 -26 34 -36 52 l-19
33 29 -31 c15 -17 40 -46 55 -65z"/>
<path d="M944 2635 c-4 -9 26 -54 77 -117 46 -57 103 -128 127 -158 24 -30 52
-64 61 -75 9 -11 43 -54 76 -95 82 -103 76 -96 147 -181 35 -41 119 -145 188
-229 170 -208 200 -241 237 -256 38 -17 287 -19 327 -4 40 15 32 42 -36 123
-35 41 -93 111 -130 156 -38 45 -68 78 -68 72 0 -12 22 -40 88 -112 23 -25 42
-50 42 -55 1 -5 19 -27 40 -49 22 -22 40 -45 40 -52 0 -6 6 -14 13 -16 7 -4 8
-6 1 -6 -12 -1 -104 95 -104 107 0 4 -12 21 -27 37 -30 31 -66 75 -123 145
-19 24 -65 79 -102 122 -38 43 -68 82 -68 86 0 5 -8 17 -18 28 -10 10 -41 47
-69 81 -28 34 -54 59 -57 56 -3 -4 -6 1 -6 10 0 9 -6 20 -14 24 -7 4 -18 18
-25 31 -7 12 -31 44 -54 71 -23 26 -64 76 -92 110 -27 34 -57 71 -67 82 -25
31 -66 38 -231 40 -84 1 -156 4 -160 6 -4 3 -3 11 4 19 9 10 9 14 0 14 -6 0
-14 -7 -17 -15z"/>
</g>
</svg>
